<?xml version="1.0" standalone="no"?>
<!DOCTYPE svg PUBLIC "-//W3C//DTD SVG 20010904//EN"
 "http://www.w3.org/TR/2001/REC-SVG-20010904/DTD/svg10.dtd">
<svg version="1.0" xmlns="http://www.w3.org/2000/svg"
 width="1024.000000pt" height="1024.000000pt" viewBox="0 0 1024.000000 1024.000000"
 preserveAspectRatio="xMidYMid meet">
<metadata>
Created by potrace 1.11, written by Peter Selinger 2001-2013
</metadata>
<g transform="translate(0.000000,1024.000000) scale(0.100000,-0.100000)"
fill="#000000" stroke="none">
<path d="M4848 10165 c-2 -2 -50 -6 -108 -9 -58 -4 -112 -8 -120 -11 -8 -2
-44 -6 -80 -10 -36 -3 -76 -8 -90 -10 -14 -2 -47 -6 -75 -10 -27 -3 -57 -8
-65 -10 -8 -2 -35 -7 -60 -10 -97 -13 -251 -48 -430 -96 -63 -17 -122 -32
-131 -34 -9 -2 -90 -28 -181 -59 -669 -225 -1298 -598 -1807 -1071 -154 -143
-307 -302 -420 -435 -35 -41 -73 -86 -84 -100 -39 -45 -172 -224 -229 -305
-201 -289 -389 -636 -524 -968 -37 -89 -67 -166 -69 -172 -1 -5 -5 -17 -8 -25
-60 -144 -183 -597 -213 -789 -3 -18 -8 -43 -10 -55 -7 -31 -34 -224 -40 -281
-3 -27 -7 -60 -9 -73 -26 -158 -27 -850 -1 -1012 3 -14 7 -55 11 -92 3 -37 8
-77 10 -90 2 -13 13 -79 24 -148 11 -69 23 -136 26 -150 23 -113 28 -138 36
-160 4 -14 10 -38 13 -55 25 -156 174 -594 291 -860 39 -88 167 -340 210 -415
21 -36 44 -76 51 -90 85 -159 345 -524 511 -716 153 -178 400 -427 539 -544
110 -93 152 -126 254 -203 63 -48 120 -91 126 -96 20 -16 247 -165 309 -202
308 -186 655 -348 982 -458 111 -38 271 -87 310 -96 10 -2 52 -13 93 -24 71
-18 313 -70 355 -76 11 -2 70 -10 130 -19 61 -9 130 -19 155 -21 25 -3 59 -7
75 -10 133 -20 732 -28 895 -12 41 4 98 10 125 13 152 14 346 42 445 64 25 5
56 12 70 14 14 2 48 10 75 16 28 6 61 14 75 16 120 23 526 149 655 204 11 5
72 30 135 55 63 26 135 57 160 70 25 12 100 50 168 84 383 192 758 449 1087
745 147 134 379 369 441 448 12 15 43 52 70 83 138 159 358 475 496 713 58 99
200 381 247 490 60 137 139 347 176 467 20 66 40 131 45 145 11 30 76 282 83
325 3 17 17 89 30 160 30 155 31 167 62 420 27 224 27 801 1 1000 -3 17 -7 62
-11 100 -4 39 -9 77 -10 87 -2 9 -6 38 -10 65 -4 26 -14 86 -22 133 -21 116
-21 116 -38 195 -9 39 -18 81 -21 95 -60 284 -209 701 -370 1035 -173 360
-469 810 -721 1095 -325 369 -674 674 -1054 923 -122 80 -265 167 -274 167 -3
0 -23 11 -45 25 -61 38 -342 178 -460 228 -245 104 -660 242 -817 271 -15 3
-71 14 -123 26 -99 21 -293 55 -370 65 -93 11 -192 22 -292 32 -60 6 -655 13
-660 8z m572 -1668 c19 -3 60 -8 90 -11 30 -4 66 -8 80 -10 14 -3 48 -7 75
-11 126 -15 403 -86 585 -149 533 -186 1046 -534 1420 -965 30 -35 60 -68 66
-75 26 -28 149 -193 202 -273 202 -302 347 -617 447 -974 30 -105 81 -348 90
-425 3 -28 7 -60 10 -72 26 -138 26 -628 0 -819 -12 -84 -16 -112 -25 -168 -6
-33 -12 -71 -15 -85 -3 -14 -7 -34 -9 -45 -13 -68 -63 -248 -97 -355 -254
-776 -781 -1429 -1509 -1868 -73 -44 -379 -192 -465 -225 -168 -64 -358 -124
-445 -141 -14 -2 -47 -10 -75 -16 -141 -33 -254 -50 -450 -67 -166 -14 -588
-7 -687 12 -11 3 -46 7 -77 11 -31 3 -59 8 -62 10 -3 2 -26 6 -50 9 -24 3 -73
12 -108 21 -36 9 -73 18 -84 20 -10 2 -26 5 -35 8 -9 3 -28 7 -42 10 -89 16
-348 108 -512 181 -717 320 -1318 900 -1661 1603 -34 70 -73 154 -85 187 -13
33 -28 69 -33 80 -35 79 -108 318 -140 460 -29 126 -29 126 -34 165 -3 19 -8
45 -10 57 -5 22 -14 84 -20 143 -2 19 -7 69 -11 110 -16 150 -10 538 11 690 2
14 6 50 10 80 15 132 68 364 121 535 242 778 785 1468 1485 1887 150 90 290
162 424 217 55 23 109 46 120 51 89 39 427 135 548 155 186 32 240 39 362 51
39 3 71 7 73 9 5 4 486 -3 522 -8z"/>
</g>
</svg>
